<?xml version="1.0" encoding="us-ascii" standalone="no"?><svg xmlns="http://www.w3.org/2000/svg" xmlns:xlink="http://www.w3.org/1999/xlink" contentStyleType="text/css" height="502px" preserveAspectRatio="none" style="width:684px;height:502px;background:#FFFFFF;" version="1.1" viewBox="0 0 684 502" width="684px" zoomAndPan="magnify"><defs/><g><!--entity a--><g id="elem_a"><ellipse cx="19" cy="73.5" fill="#F1F1F1" rx="8" ry="8" style="stroke:#181818;stroke-width:0.5;"/><path d="M19,81.5 L19,108.5 M6,89.5 L32,89.5 M19,108.5 L6,123.5 M19,108.5 L32,123.5 " fill="none" style="stroke:#181818;stroke-width:0.5;"/><text fill="#000000" font-family="sans-serif" font-size="14" lengthAdjust="spacing" textLength="9" x="14.5" y="140.1074">A</text></g><!--entity b--><g id="elem_b"><ellipse cx="220.5" cy="309.5" fill="#F1F1F1" rx="8" ry="8" style="stroke:#181818;stroke-width:0.5;"/><path d="M220.5,317.5 L220.5,344.5 M207.5,325.5 L233.5,325.5 M220.5,344.5 L207.5,359.5 M220.5,344.5 L233.5,359.5 " fill="none" style="stroke:#181818;stroke-width:0.5;"/><text fill="#000000" font-family="sans-serif" font-size="14" lengthAdjust="spacing" textLength="9" x="216" y="376.1074">B</text></g><!--entity c--><g id="elem_c"><ellipse cx="220.5" cy="176.5" fill="#F1F1F1" rx="8" ry="8" style="stroke:#181818;stroke-width:0.5;"/><path d="M220.5,184.5 L220.5,211.5 M207.5,192.5 L233.5,192.5 M220.5,211.5 L207.5,226.5 M220.5,211.5 L233.5,226.5 " fill="none" style="stroke:#181818;stroke-width:0.5;"/><text fill="#000000" font-family="sans-serif" font-size="14" lengthAdjust="spacing" textLength="10" x="215.5" y="243.1074">C</text></g><g id="elem_Oblige"><ellipse cx="220.3935" cy="23.5787" fill="#F1F1F1" rx="75.8935" ry="17.5787" style="stroke:#181818;stroke-width:0.5;"/><text fill="#000000" font-family="sans-serif" font-size="14" lengthAdjust="spacing" textLength="97" x="168.8935" y="28.3824">Pay for a friend</text></g><g id="elem_Split"><ellipse cx="220.5651" cy="104.313" fill="#F1F1F1" rx="127.0651" ry="27.813" style="stroke:#181818;stroke-width:0.5;"/><text fill="#000000" font-family="sans-serif" font-size="14" lengthAdjust="spacing" textLength="218" x="111.5651" y="108.1099">Split expenses with multiple friends</text></g><g id="elem_Pay"><ellipse cx="543.2819" cy="125.3758" fill="#F1F1F1" rx="53.2819" ry="16.3758" style="stroke:#181818;stroke-width:0.5;"/><text fill="#000000" font-family="sans-serif" font-size="14" lengthAdjust="spacing" textLength="58" x="511.2819" y="130.1795">Pay back</text></g><g id="elem_Find"><ellipse cx="543.4594" cy="350.4755" fill="#F1F1F1" rx="65.9594" ry="16.4755" style="stroke:#181818;stroke-width:0.5;"/><text fill="#000000" font-family="sans-serif" font-size="14" lengthAdjust="spacing" textLength="75" x="502.9594" y="355.2793">Find friends</text></g><g id="elem_Move"><ellipse cx="543.4826" cy="248.3965" fill="#F1F1F1" rx="134.9826" ry="29.3965" style="stroke:#181818;stroke-width:0.5;"/><text fill="#000000" font-family="sans-serif" font-size="14" lengthAdjust="spacing" textLength="235" x="425.9826" y="252.1934">Get obligation moved along the chain</text></g><!--link a to Oblige--><g id="link_a_Oblige"><path d="M32.64,94.99 C46.81,84.73 70.77,68.51 93.5,58.5 C114.18,49.39 137.82,42.07 159,36.53 " fill="none" id="a-to-Oblige" style="stroke:#181818;stroke-width:1.0;"/><polygon fill="#181818" points="164.04,35.23,154.3282,33.5928,159.1969,36.4729,156.3168,41.3417,164.04,35.23" style="stroke:#181818;stroke-width:1.0;"/></g><!--link a to Split--><g id="link_a_Split"><path d="M32.78,104.5 C45.18,104.5 65.38,104.5 88.02,104.5 " fill="none" id="a-to-Split" style="stroke:#181818;stroke-width:1.0;"/><polygon fill="#181818" points="93.2,104.5,84.2,100.5,88.2,104.5,84.2,108.5,93.2,104.5" style="stroke:#181818;stroke-width:1.0;"/></g><!--link b to Pay--><g id="link_b_Pay"><path d="M234.36,334.16 C257.97,322.23 309.32,294.88 347.5,264.5 C378,240.23 377.68,225.35 408.5,201.5 C439.99,177.12 480.18,155.39 508.29,141.48 " fill="none" id="b-to-Pay" style="stroke:#181818;stroke-width:1.0;"/><polygon fill="#181818" points="513.05,139.14,503.2082,139.5117,508.5608,141.3417,506.7309,146.6944,513.05,139.14" style="stroke:#181818;stroke-width:1.0;"/></g><!--link c to Pay--><g id="link_c_Pay"><path d="M234.04,204.28 C260.52,197.47 324.13,181.13 377.5,167.5 C417.6,157.25 463.19,145.65 496.27,137.24 " fill="none" id="c-to-Pay" style="stroke:#181818;stroke-width:1.0;"/><polygon fill="#181818" points="501.47,135.92,491.7582,134.2828,496.6269,137.1629,493.7468,142.0317,501.47,135.92" style="stroke:#181818;stroke-width:1.0;"/></g><!--reverse link Oblige to Pay--><g id="link_Oblige_Pay"><path d="M290.74,41.93 C309.25,47.07 329.19,52.81 347.5,58.5 C404.25,76.11 469.4,99.05 508.19,113.01 " fill="none" id="Oblige-backto-Pay" style="stroke:#181818;stroke-width:1.0;"/><polygon fill="none" points="288.81,48.65,271.37,36.61,292.51,35.15,288.81,48.65" style="stroke:#181818;stroke-width:1.0;"/></g><!--reverse link Split to Pay--><g id="link_Split_Pay"><path d="M362.5,113.72 C408.21,116.71 456.05,119.84 490.92,122.12 " fill="none" id="Split-backto-Pay" style="stroke:#181818;stroke-width:1.0;"/><polygon fill="none" points="361.9,120.7,342.4,112.41,362.81,106.73,361.9,120.7" style="stroke:#181818;stroke-width:1.0;"/></g><!--link a to Find--><g id="link_a_Find"><path d="M24.01,144.19 C32.25,216.81 53.75,366.49 93.5,397.5 C219.53,495.81 429.7,407.66 509.98,367.74 " fill="none" id="a-to-Find" style="stroke:#181818;stroke-width:1.0;"/><polygon fill="#181818" points="514.62,365.41,504.7819,365.8698,510.1507,367.6518,508.3687,373.0206,514.62,365.41" style="stroke:#181818;stroke-width:1.0;"/></g><!--link b to Find--><g id="link_b_Find"><path d="M234.08,340.89 C273.16,342.11 394.47,345.89 472.8,348.33 " fill="none" id="b-to-Find" style="stroke:#181818;stroke-width:1.0;"/><polygon fill="#181818" points="477.89,348.48,469.0201,344.1993,472.8925,348.3229,468.7688,352.1953,477.89,348.48" style="stroke:#181818;stroke-width:1.0;"/></g><!--link c to Find--><g id="link_c_Find"><path d="M234.1,213.69 C264.08,228.39 342.16,266.3 408.5,295.5 C439.81,309.28 475.68,323.94 502.43,334.66 " fill="none" id="c-to-Find" style="stroke:#181818;stroke-width:1.0;"/><polygon fill="#181818" points="507.31,336.62,500.4393,329.5636,502.6676,334.763,497.4681,336.9914,507.31,336.62" style="stroke:#181818;stroke-width:1.0;"/></g><!--link c to b--><g id="link_c_b"><path d="M220.5,247.12 C220.5,262.4 220.5,279.96 220.5,295.69 " fill="none" id="c-to-b" style="stroke:#181818;stroke-width:1.0;stroke-dasharray:7.0,7.0;"/><polygon fill="#181818" points="220.5,300.95,224.5,291.95,220.5,295.95,216.5,291.95,220.5,300.95" style="stroke:#181818;stroke-width:1.0;"/><text fill="#000000" font-family="sans-serif" font-size="13" lengthAdjust="spacing" textLength="101" x="157.5" y="279.5283">second obligation</text></g><!--link b to Move--><g id="link_b_Move"><path d="M234.08,336.89 C270.44,326.47 377.97,295.65 455.84,273.33 " fill="none" id="b-to-Move" style="stroke:#181818;stroke-width:1.0;"/><polygon fill="#181818" points="460.93,271.88,451.1747,270.5255,456.1251,273.263,453.3876,278.2134,460.93,271.88" style="stroke:#181818;stroke-width:1.0;"/></g><!--reverse link c to Move--><g id="link_c_Move"><path d="M253.94,211.64 C294.16,216.78 364.93,225.82 426.32,233.66 " fill="none" id="c-backto-Move" style="stroke:#181818;stroke-width:1.0;"/><polygon fill="none" points="253.04,218.58,234.08,209.1,254.81,204.7,253.04,218.58" style="stroke:#181818;stroke-width:1.0;"/></g><!--SRC=[LP11JiKm34JtEOMNwQ8S024aG88L-aYSm4dTrY8_gHhpFqWSdWG7jLs-oNXcb42ZW2HOUPe51bx92wTe37f9Apm0Pi06ZnLSWwSAtjWt_8QnCCAuCiMXgxezkS0JTSPY1tr_lnFUby02zBLGp9JXoZB3-JC8Bu5QHDQCF-Skeh5MElGVQYjKJAwPbFo1MZVS_VJzlwPXUydOPux3SK9LTWiQkYFw0nhxGWAfLcBzIJYd2ms08SK9P2RmCtBK-DVof04tvRx4ta8cdygAxNwhszowMlaN]--></g></svg>